<?xml version="1.0" standalone="no"?>
<!DOCTYPE svg PUBLIC "-//W3C//DTD SVG 20010904//EN"
 "http://www.w3.org/TR/2001/REC-SVG-20010904/DTD/svg10.dtd">
<svg version="1.0" xmlns="http://www.w3.org/2000/svg"
 width="1350.000000pt" height="1365.000000pt" viewBox="0 0 1350.000000 1365.000000"
 preserveAspectRatio="xMidYMid meet">
<metadata>
Created by potrace 1.10, written by Peter Selinger 2001-2011
</metadata>
<g transform="translate(0.000000,1365.000000) scale(0.100000,-0.100000)"
fill="#000000" stroke="none">
<path d="M6100 11469 c-176 -13 -252 -25 -330 -52 -41 -13 -118 -35 -170 -47
-52 -11 -142 -36 -200 -55 -58 -18 -144 -43 -192 -54 -85 -21 -174 -61 -578
-265 -80 -40 -161 -79 -180 -86 -46 -19 -205 -126 -247 -167 -18 -18 -38 -33
-45 -33 -7 0 -24 -10 -38 -21 -14 -11 -47 -35 -75 -53 -27 -19 -65 -48 -83
-65 -18 -17 -37 -31 -41 -31 -5 0 -28 -16 -52 -35 -24 -19 -50 -35 -57 -35
-19 0 -558 -544 -654 -660 -43 -52 -238 -336 -238 -346 0 -3 -13 -22 -29 -42
-103 -128 -251 -371 -251 -411 0 -6 -22 -57 -48 -113 -55 -116 -68 -146 -107
-238 -15 -36 -31 -72 -36 -80 -52 -90 -90 -182 -104 -252 -9 -46 -26 -117 -37
-158 -11 -41 -33 -127 -50 -190 -44 -168 -44 -168 -71 -250 -36 -112 -46 -379
-19 -534 18 -99 18 -114 5 -164 -8 -31 -23 -73 -34 -94 -25 -49 -24 -79 5
-136 13 -26 29 -67 36 -92 25 -93 88 -180 130 -180 7 0 36 16 66 36 56 37 123
59 154 49 39 -12 61 -51 63 -109 1 -70 -20 -96 -84 -103 -36 -4 -55 1 -103 26
-32 17 -73 31 -91 31 -25 0 -34 5 -39 23 -6 21 -7 21 -17 4 -7 -12 -9 -48 -5
-95 3 -43 8 -113 12 -157 3 -44 9 -84 14 -88 6 -7 80 29 80 39 0 3 -6 19 -13
37 -8 18 -17 50 -21 72 -4 22 -12 46 -18 52 -15 19 -2 42 20 36 11 -2 45 -36
76 -74 32 -38 61 -69 65 -69 5 0 37 19 73 43 97 63 106 68 113 57 7 -11 -58
-134 -75 -145 -6 -3 -10 -18 -10 -34 0 -21 12 -36 52 -66 69 -53 88 -72 88
-90 0 -16 -40 -21 -56 -6 -12 12 -131 32 -149 25 -8 -3 -24 -38 -36 -77 -20
-67 -52 -112 -71 -101 -4 3 -8 44 -8 92 0 48 -4 92 -8 99 -4 7 -23 14 -42 15
l-35 3 2 -65 c1 -36 9 -79 17 -95 9 -17 16 -46 16 -65 0 -19 7 -44 15 -54 8
-11 15 -40 15 -65 0 -25 7 -55 15 -65 8 -11 15 -34 15 -52 0 -17 7 -45 15 -60
8 -16 15 -43 15 -60 0 -33 20 -84 34 -84 5 0 24 9 42 21 36 22 43 49 19 69 -8
7 -15 17 -15 22 0 5 -12 34 -26 63 -42 90 -14 100 66 26 89 -83 90 -83 154
-18 58 59 89 81 100 70 9 -9 7 -41 -3 -61 -29 -54 -52 -114 -49 -128 2 -9 38
-35 81 -58 55 -29 77 -46 77 -60 0 -18 -6 -19 -94 -13 l-94 5 -12 -26 c-7 -15
-15 -55 -18 -89 -3 -44 -10 -67 -24 -79 -30 -28 -35 -17 -66 135 -9 43 -29 56
-76 47 -42 -8 -55 -29 -33 -54 8 -9 19 -30 23 -47 4 -16 13 -36 21 -43 7 -7
13 -24 13 -36 0 -13 7 -29 15 -36 8 -7 15 -23 15 -35 0 -12 7 -28 15 -35 8 -7
15 -23 15 -35 0 -12 7 -28 15 -35 8 -7 15 -23 15 -35 0 -12 7 -28 15 -35 8 -7
15 -23 15 -35 0 -12 7 -28 15 -35 8 -7 15 -18 15 -25 0 -8 7 -26 15 -42 8 -15
20 -43 27 -60 7 -18 18 -33 24 -33 13 0 84 75 84 89 0 5 -25 41 -55 80 -30 39
-55 78 -55 86 0 23 17 26 48 8 100 -60 127 -73 146 -73 15 0 37 23 75 77 49
69 55 74 67 58 15 -20 10 -74 -13 -139 -12 -35 -11 -41 3 -57 9 -10 32 -21 50
-25 19 -3 37 -10 40 -15 3 -5 15 -9 28 -9 12 0 31 -6 42 -14 18 -14 18 -16 2
-32 -11 -11 -39 -18 -90 -21 -50 -4 -77 -10 -85 -21 -8 -10 -13 -48 -13 -103
0 -73 -3 -88 -17 -93 -18 -7 -43 17 -43 40 0 7 -11 34 -25 60 -14 26 -25 53
-25 59 0 20 -24 24 -51 9 -13 -7 -36 -13 -51 -14 -28 0 -47 -18 -31 -29 6 -3
13 -16 17 -28 4 -13 12 -23 17 -23 5 0 14 -10 19 -23 6 -12 19 -35 30 -52 11
-16 23 -37 27 -45 3 -8 18 -31 32 -50 30 -41 48 -69 58 -90 4 -8 13 -21 20
-28 7 -7 13 -19 13 -27 0 -7 7 -15 15 -19 8 -3 15 -12 15 -21 0 -8 5 -15 10
-15 6 0 14 -8 18 -17 4 -10 27 -49 52 -87 l44 -69 34 39 c19 21 40 51 48 65
13 26 11 29 -63 102 -44 43 -73 79 -69 86 11 17 48 13 81 -9 17 -11 38 -20 48
-20 10 0 29 -7 42 -16 14 -9 31 -14 37 -11 7 2 33 43 57 91 41 81 69 108 72
69 1 -10 1 -57 -1 -104 l-2 -85 52 -12 c28 -7 64 -12 78 -12 42 0 72 -11 72
-26 0 -17 -24 -30 -107 -55 -38 -12 -71 -24 -75 -28 -4 -4 -1 -40 8 -81 31
-148 3 -168 -71 -50 -27 44 -56 80 -64 80 -22 0 -122 -50 -127 -64 -3 -7 12
-31 33 -54 21 -22 76 -82 123 -132 173 -189 330 -350 340 -350 4 0 22 28 39
63 30 60 41 117 22 117 -12 0 -126 76 -141 95 -6 8 -9 19 -5 25 11 18 47 13
182 -26 19 -5 25 0 42 37 10 24 25 64 32 89 16 57 28 75 43 60 12 -12 34 -110
35 -157 l1 -33 105 0 c78 0 105 -3 105 -12 -1 -24 -25 -43 -97 -77 -40 -19
-73 -37 -73 -40 0 -3 12 -37 26 -76 14 -38 28 -85 31 -102 4 -29 2 -33 -16
-33 -12 0 -21 3 -21 8 0 11 -120 132 -131 132 -6 0 -29 -15 -52 -34 -23 -18
-52 -39 -64 -45 -32 -17 -28 -36 12 -61 19 -12 35 -26 35 -31 0 -5 7 -9 15 -9
8 0 15 -4 15 -8 0 -5 27 -28 60 -52 33 -24 60 -47 60 -52 0 -4 5 -8 10 -8 5 0
19 -8 29 -18 32 -28 45 -38 64 -45 9 -3 17 -11 17 -17 0 -5 6 -10 14 -10 8 0
16 -7 20 -15 3 -8 11 -15 18 -15 8 0 28 -13 46 -29 17 -16 41 -32 52 -36 11
-3 20 -11 20 -16 0 -5 7 -9 15 -9 7 0 18 -6 22 -12 4 -7 25 -22 47 -33 21 -11
41 -25 43 -32 3 -7 13 -13 23 -13 10 0 23 -7 30 -15 7 -8 21 -15 31 -15 10 0
21 -5 24 -11 4 -5 17 -14 28 -20 22 -9 33 -15 72 -37 11 -7 30 -16 42 -21 11
-6 24 -15 28 -20 3 -6 14 -11 24 -11 10 0 24 -7 31 -15 7 -8 20 -15 30 -15 10
0 23 -7 30 -15 7 -8 23 -15 35 -15 12 0 28 -7 35 -15 7 -8 20 -15 30 -15 10 0
23 -7 30 -15 7 -8 23 -15 35 -15 12 0 28 -7 35 -15 7 -8 20 -15 29 -15 10 0
26 -7 37 -15 10 -8 26 -15 34 -15 8 0 28 -7 44 -15 15 -8 38 -15 51 -15 12 0
28 -7 35 -15 7 -8 25 -15 39 -15 15 0 36 -7 47 -15 10 -8 31 -15 45 -15 15 0
32 -7 39 -15 8 -9 30 -15 57 -15 30 0 45 -5 49 -15 4 -10 20 -15 49 -15 26 0
47 -6 55 -15 8 -9 30 -15 59 -15 25 -1 57 -7 71 -15 14 -8 41 -15 60 -15 19 0
46 -7 60 -15 14 -8 53 -15 90 -15 37 0 76 -7 90 -15 16 -9 55 -14 106 -15 45
0 114 -7 153 -16 41 -9 82 -13 98 -9 28 7 28 7 -17 27 -48 21 -94 35 -235 69
-49 13 -92 24 -94 25 -10 8 24 34 57 45 20 6 59 32 85 58 55 52 55 60 18 166
-21 58 -21 61 -5 98 23 50 44 61 111 52 72 -9 93 -30 93 -93 0 -36 -8 -59 -35
-102 -19 -30 -35 -66 -35 -80 0 -34 79 -116 121 -125 18 -4 62 -37 109 -81 46
-42 88 -74 100 -74 12 0 51 28 90 65 38 36 94 77 125 91 47 23 91 63 118 110
8 14 -14 70 -48 120 -34 51 -35 115 0 142 34 27 109 36 146 16 54 -28 62 -82
24 -168 -14 -31 -25 -64 -25 -72 0 -28 95 -112 142 -125 46 -13 78 -35 78 -53
0 -7 -29 -20 -65 -29 -37 -10 -90 -29 -120 -42 -29 -14 -60 -25 -67 -25 -9 0
-9 -3 2 -10 22 -14 69 -12 115 5 23 8 78 14 131 15 58 0 105 6 127 15 20 8 60
15 90 15 31 0 61 6 73 15 10 8 41 15 69 15 28 0 59 7 69 15 11 8 38 15 60 15
23 0 50 7 60 15 11 8 39 15 62 15 25 0 47 6 54 15 7 8 27 15 44 15 17 0 40 7
50 15 11 8 34 15 52 15 17 0 37 7 44 15 7 8 25 15 40 15 15 0 33 7 40 15 7 8
24 15 39 15 14 0 35 7 45 15 11 8 30 15 42 15 12 0 27 7 34 15 7 8 23 15 35
15 12 0 28 7 35 15 7 8 23 15 35 15 12 0 28 7 35 15 7 8 20 15 30 15 10 0 23
7 30 15 7 8 23 15 35 15 12 0 28 7 35 15 7 8 23 15 35 15 13 0 25 7 29 15 3 8
14 15 24 15 11 0 25 7 32 15 7 8 20 15 30 15 10 0 23 7 30 15 7 8 18 15 25 15
7 0 18 7 25 15 7 8 20 15 30 15 10 0 20 7 24 15 3 8 14 15 25 15 10 0 21 7 25
15 3 8 13 15 22 15 9 0 33 13 54 30 21 16 41 30 45 30 4 0 24 13 45 30 21 17
41 30 45 30 4 0 24 13 44 28 20 16 44 32 54 35 9 4 17 11 17 17 0 5 7 10 15
10 8 0 15 5 15 10 0 6 8 14 18 17 18 7 31 17 63 45 10 10 24 18 29 18 6 0 10
4 10 8 0 5 28 29 63 54 126 93 507 469 632 624 22 27 48 58 58 69 10 11 35 45
54 75 20 30 49 68 65 84 15 17 28 34 28 39 0 5 14 26 30 47 17 21 30 43 30 49
0 7 7 14 15 17 8 4 15 13 15 20 0 8 7 17 15 20 8 4 15 14 15 24 0 10 7 23 15
30 8 7 15 18 15 25 0 7 7 15 15 19 8 3 15 15 15 26 0 11 5 20 10 20 6 0 15 10
20 22 6 13 19 37 30 53 11 17 25 42 31 58 6 15 15 27 20 27 5 0 9 8 9 19 0 10
7 24 15 31 8 7 15 20 15 30 0 10 7 23 15 30 8 7 15 23 15 37 0 13 7 26 15 29
8 4 15 16 15 29 0 12 7 28 15 35 8 7 15 20 15 30 0 10 7 23 15 30 8 7 15 23
15 35 0 12 7 28 15 35 8 7 15 23 15 35 0 12 7 28 15 35 8 7 15 23 15 35 0 12
7 28 15 35 8 7 15 25 15 40 0 15 7 33 15 40 8 7 15 22 15 34 0 12 7 31 15 42
8 10 15 26 15 34 0 8 7 28 15 44 8 15 15 43 15 61 0 18 7 38 15 45 8 7 15 29
15 50 0 21 7 43 15 50 9 7 15 29 15 54 0 23 7 51 15 62 8 10 15 37 15 60 0 22
7 49 15 60 8 10 15 41 15 69 0 28 7 59 15 69 9 11 15 41 15 69 0 27 7 63 15
80 8 19 16 75 18 137 3 58 10 135 17 172 13 71 7 135 -11 107 -5 -7 -9 -22 -9
-31 0 -17 -51 -108 -60 -108 -3 0 -31 25 -63 55 -32 30 -66 55 -74 55 -9 0
-46 -12 -81 -26 -72 -28 -120 -28 -153 2 -24 21 -26 111 -4 153 27 54 117 48
199 -14 54 -40 71 -40 114 -1 21 20 54 64 72 98 18 35 59 91 91 125 33 34 59
70 59 81 0 21 -44 84 -85 122 -15 14 -40 51 -56 83 -34 67 -102 137 -133 137
-12 0 -46 -16 -76 -35 -67 -44 -89 -50 -137 -38 -46 11 -63 39 -63 110 0 47 3
54 33 77 42 32 69 32 132 1 28 -13 58 -25 68 -25 24 0 68 23 91 49 11 12 29
21 41 21 18 0 25 -10 39 -57 9 -32 23 -71 31 -88 7 -16 16 -43 19 -58 4 -15
11 -25 16 -22 15 9 12 83 -5 148 -8 32 -15 100 -15 152 0 52 -4 97 -10 100 -5
3 -10 23 -10 43 0 56 -9 63 -55 42 -22 -10 -61 -28 -87 -39 -46 -21 -47 -22
-41 -58 3 -21 14 -57 24 -80 40 -90 9 -127 -47 -56 -58 73 -88 103 -103 103
-8 0 -48 -23 -88 -50 -41 -28 -78 -48 -83 -45 -16 10 -11 40 10 65 11 13 20
29 20 37 0 7 4 13 8 13 5 0 16 18 26 40 18 41 18 41 -6 63 -13 12 -39 33 -57
47 -52 40 -61 50 -61 71 0 21 12 24 39 9 10 -5 43 -13 72 -18 30 -5 62 -13 71
-16 18 -8 39 32 68 124 30 98 54 86 64 -31 9 -115 10 -116 105 -121 44 -3 87
-10 95 -18 14 -11 16 -9 16 16 0 16 -7 38 -15 48 -8 11 -15 38 -15 60 0 23 -7
50 -15 60 -8 11 -15 38 -15 60 0 23 -7 50 -15 60 -8 11 -15 39 -15 62 0 25 -6
47 -15 54 -8 7 -15 29 -15 50 0 21 -7 43 -15 50 -8 7 -15 27 -15 44 0 17 -7
40 -15 50 -8 11 -15 30 -15 42 0 29 -28 94 -40 94 -6 0 -10 -6 -10 -12 0 -7
-30 -30 -65 -51 -37 -22 -65 -45 -65 -54 0 -21 56 -139 70 -148 13 -8 13 -42
0 -50 -11 -7 -40 9 -75 41 -49 46 -88 74 -102 74 -8 0 -40 -25 -72 -55 -32
-30 -65 -55 -74 -55 -23 0 -22 46 2 90 23 43 34 91 23 106 -4 5 -25 19 -47 31
-84 43 -105 59 -105 76 0 17 8 18 103 15 l102 -3 7 45 c22 144 27 160 42 160
14 0 46 -72 46 -105 0 -11 9 -40 20 -64 17 -36 24 -42 42 -38 13 3 51 11 86
18 70 13 74 21 42 82 -11 20 -20 43 -20 51 0 7 -7 19 -15 26 -8 7 -15 26 -15
42 0 16 -6 31 -15 34 -8 4 -15 16 -15 29 0 12 -7 28 -15 35 -8 7 -15 20 -15
30 0 10 -7 23 -15 30 -8 7 -15 23 -15 35 0 13 -7 25 -15 29 -8 3 -15 16 -15
29 0 14 -7 30 -15 37 -8 7 -15 20 -15 30 0 10 -7 20 -15 24 -8 3 -15 17 -15
31 0 14 -4 25 -10 25 -5 0 -13 12 -16 28 -4 15 -14 37 -22 49 -14 22 -15 22
-85 -47 -67 -66 -70 -70 -54 -88 9 -10 17 -22 17 -27 0 -5 7 -15 15 -24 28
-29 85 -110 85 -120 0 -16 -36 -13 -50 4 -7 8 -18 15 -25 15 -6 0 -22 9 -35
20 -13 11 -29 20 -35 20 -7 0 -18 7 -25 15 -20 25 -58 18 -74 -12 -28 -53 -95
-125 -110 -120 -13 5 -12 32 8 122 18 86 17 87 -89 123 -43 15 -80 33 -82 39
-6 18 41 33 127 41 l75 7 0 105 c0 87 3 105 16 108 15 3 36 -31 78 -129 25
-59 34 -65 79 -46 21 9 56 21 80 27 31 8 42 16 42 30 0 10 -3 20 -7 22 -10 4
-53 65 -53 74 0 3 -13 23 -30 44 -16 21 -30 42 -30 48 0 5 -7 12 -15 16 -8 3
-15 14 -15 25 0 10 -7 21 -15 25 -8 3 -15 12 -15 21 0 8 -4 15 -9 15 -5 0 -12
8 -15 18 -4 10 -19 32 -35 48 -15 16 -39 47 -53 69 -14 22 -34 50 -44 62 -11
11 -26 31 -34 44 -8 12 -24 33 -36 47 l-20 25 -52 -66 c-29 -35 -52 -71 -52
-79 0 -7 29 -43 65 -78 68 -68 82 -100 42 -100 -12 0 -31 6 -42 13 -20 14
-115 47 -134 47 -5 0 -27 -35 -48 -77 -62 -126 -76 -123 -83 13 l-5 99 -75 13
c-41 8 -85 16 -97 18 -13 2 -23 10 -23 18 0 13 33 28 139 61 l54 17 -7 63 c-3
35 -13 76 -21 92 -19 36 -19 52 1 60 16 6 64 -33 64 -53 0 -7 3 -14 8 -16 4
-1 19 -22 35 -45 16 -26 35 -43 46 -43 11 0 52 16 91 36 l72 37 -79 81 c-203
210 -447 446 -459 446 -9 -1 -54 -89 -54 -105 0 -5 -7 -17 -16 -27 -21 -22
-12 -35 59 -80 75 -47 98 -70 88 -87 -8 -12 -20 -12 -78 -2 -138 26 -131 26
-138 -5 -4 -16 -9 -36 -13 -44 -3 -8 -11 -35 -16 -60 -10 -38 -15 -45 -36 -45
-23 0 -25 4 -32 66 -4 37 -12 79 -18 93 -9 25 -11 26 -104 26 -52 0 -97 4
-100 9 -8 13 28 42 97 76 36 18 63 39 65 49 4 18 -13 65 -49 141 -43 90 -6 88
86 -5 38 -38 74 -70 80 -70 19 0 135 91 135 106 0 8 -4 14 -8 14 -9 0 -35 19
-85 62 -18 15 -40 30 -49 34 -10 3 -18 10 -18 15 0 5 -6 9 -12 9 -7 0 -26 14
-42 30 -16 17 -34 30 -39 30 -5 0 -26 14 -47 30 -21 17 -41 30 -45 30 -4 0
-24 14 -45 30 -21 17 -41 30 -45 30 -4 0 -24 14 -45 30 -21 17 -41 30 -45 30
-4 0 -18 9 -32 20 -34 27 -46 25 -60 -7 -12 -29 -32 -108 -33 -130 0 -13 107
-67 145 -74 12 -3 21 -14 23 -27 3 -21 0 -22 -55 -22 -58 -1 -139 -13 -149
-22 -3 -3 -8 -45 -11 -92 -6 -86 -6 -87 -32 -84 -20 2 -27 11 -36 45 -5 23
-13 45 -17 49 -5 4 -8 18 -8 30 0 12 -7 30 -17 39 -17 18 -20 17 -121 -10 -50
-13 -66 -14 -78 -4 -13 10 -12 14 3 32 10 10 44 38 76 60 52 37 58 44 53 69
-3 15 -21 50 -41 78 -41 58 -49 92 -22 98 10 2 26 -3 35 -12 38 -37 112 -86
129 -86 20 0 123 98 123 117 0 11 -76 53 -97 53 -6 0 -16 7 -23 15 -7 8 -20
15 -30 15 -10 0 -23 7 -30 15 -7 8 -20 15 -30 15 -10 0 -23 7 -30 15 -7 8 -23
15 -37 15 -13 0 -26 7 -29 15 -4 8 -16 15 -29 15 -12 0 -28 7 -35 15 -7 8 -25
15 -40 15 -16 0 -30 7 -34 15 -3 8 -16 15 -29 15 -14 0 -30 7 -37 15 -7 8 -23
15 -36 15 -12 0 -29 7 -38 15 -8 8 -21 15 -28 15 -7 0 -23 7 -35 15 -21 15
-22 14 -27 -17 -21 -142 -15 -168 39 -168 18 0 37 -4 40 -10 3 -5 23 -10 43
-10 76 0 83 -39 10 -58 -23 -6 -64 -14 -90 -17 -64 -8 -71 -24 -59 -122 7 -58
7 -80 -2 -85 -24 -16 -37 -7 -63 45 -15 28 -33 64 -41 80 -8 15 -22 27 -31 27
-18 0 -128 -43 -139 -54 -3 -3 -17 -6 -30 -6 -39 0 -27 28 43 101 l67 69 -39
47 c-21 27 -51 61 -66 76 -29 30 -36 61 -16 73 6 4 16 0 23 -9 7 -10 15 -17
19 -17 13 0 116 -51 121 -61 13 -21 35 -6 71 49 21 31 41 59 46 60 30 13 -14
51 -58 52 -16 0 -39 7 -50 15 -10 8 -36 15 -56 15 -20 0 -43 7 -52 15 -8 8
-32 15 -53 15 -22 0 -48 7 -59 15 -10 8 -37 15 -59 15 -22 0 -51 7 -65 15 -14
8 -43 14 -65 15 -22 0 -50 6 -60 14 -11 8 -43 15 -70 17 l-50 4 -3 -74 c-2
-41 1 -78 6 -83 5 -5 52 -10 106 -12 53 -2 100 -6 103 -10 15 -14 -46 -54
-116 -76 l-73 -23 5 -56 c3 -31 13 -71 22 -88 15 -31 13 -73 -4 -73 -11 0 -50
39 -81 80 -14 18 -29 39 -35 45 -19 22 -44 24 -68 4 -14 -10 -30 -19 -35 -19
-6 0 -17 -6 -24 -13 -14 -14 -64 -37 -78 -37 -16 0 -11 42 6 59 19 20 84 120
83 129 0 4 -34 34 -76 66 -79 62 -93 80 -74 99 8 8 18 7 39 -5 15 -9 45 -19
67 -23 22 -4 52 -14 66 -21 32 -16 36 -12 73 68 41 89 41 88 -70 88 -57 0
-121 7 -158 17 -37 9 -73 13 -90 9 -33 -8 -28 -16 17 -31 26 -8 33 -16 35 -41
2 -19 -5 -45 -17 -65 -27 -43 -26 -55 4 -123 32 -72 31 -97 -2 -136 -26 -32
-28 -32 -92 -27 -79 8 -101 27 -101 91 0 32 9 56 40 101 22 33 40 69 40 81 0
29 -83 110 -128 125 -20 6 -73 38 -117 71 -61 45 -85 58 -103 53 -26 -6 -122
-73 -122 -85 0 -17 -83 -29 -132 -18 -37 9 -57 8 -90 -2 -24 -8 -95 -17 -158
-22 -157 -10 -223 -18 -234 -28 -5 -5 0 -27 12 -52 11 -24 22 -51 26 -62 4
-13 13 -17 29 -13 12 4 47 11 77 18 30 6 62 18 71 26 17 15 49 8 49 -11 0 -18
-12 -30 -75 -81 -58 -47 -75 -64 -75 -76 0 -3 23 -41 51 -83 59 -90 60 -115 2
-85 -21 11 -51 28 -68 39 -65 43 -77 44 -105 12 -54 -62 -80 -96 -80 -104 0
-10 -37 -11 -44 0 -6 10 18 122 32 149 11 19 9 26 -8 43 -11 11 -29 20 -39 20
-11 0 -22 4 -25 9 -3 5 -20 12 -38 15 -18 4 -44 15 -58 25 -21 17 -22 21 -10
36 10 12 22 15 44 11 17 -4 57 -4 88 0 56 6 58 8 68 43 13 46 13 121 0 121 -5
0 -10 -4 -10 -9 0 -6 -21 -13 -47 -17 -27 -4 -57 -13 -68 -20 -11 -8 -38 -14
-61 -14 -25 0 -47 -6 -54 -15 -7 -9 -29 -15 -55 -15 -26 0 -48 -6 -55 -15 -7
-8 -29 -15 -49 -15 -20 0 -45 -7 -55 -15 -11 -8 -30 -15 -42 -15 -12 0 -35 -7
-50 -15 -16 -8 -36 -15 -44 -15 -26 0 -86 -25 -87 -35 -1 -5 11 -29 25 -52 27
-43 59 -63 71 -46 9 13 156 83 175 83 20 0 21 -16 1 -24 -8 -3 -15 -12 -15
-20 0 -8 -6 -19 -13 -23 -17 -10 -97 -112 -97 -123 0 -5 25 -35 55 -66 30 -32
55 -61 55 -66 0 -4 5 -8 10 -8 6 0 10 -7 10 -15 0 -20 -40 -19 -82 2 -18 9
-45 22 -60 30 -46 23 -64 17 -97 -37 -17 -28 -31 -53 -31 -56 0 -3 -9 -19 -21
-35 -17 -24 -24 -28 -35 -18 -11 9 -13 31 -8 104 l7 93 -39 11 c-21 6 -52 11
-67 11 -68 0 -130 53 -74 64 12 3 36 8 52 11 83 17 107 23 117 33 6 6 7 32 3
66 -7 50 -10 56 -31 56 -13 0 -24 -4 -24 -9 0 -5 -12 -12 -26 -15 -15 -4 -33
-14 -41 -21 -8 -8 -22 -15 -31 -15 -9 0 -26 -7 -36 -15 -11 -8 -27 -15 -37
-15 -9 0 -22 -7 -29 -15 -7 -8 -20 -15 -30 -15 -10 0 -23 -7 -30 -15 -7 -8
-20 -15 -30 -15 -10 0 -23 -7 -30 -15 -7 -8 -23 -15 -35 -15 -13 0 -25 -7 -29
-15 -3 -8 -14 -15 -25 -15 -11 0 -22 -4 -26 -9 -7 -13 -124 -71 -142 -71 -7 0
-13 -6 -13 -12 0 -21 54 -78 73 -78 19 0 117 65 130 87 11 18 56 17 64 -2 3
-9 -1 -21 -9 -28 -19 -15 -88 -134 -88 -151 0 -7 26 -30 57 -52 76 -51 93 -66
93 -80 0 -20 -40 -23 -98 -7 -96 27 -103 25 -125 -32 -50 -129 -51 -130 -68
-130 -10 0 -19 28 -29 95 l-16 95 -50 7 c-27 3 -73 7 -101 7 -46 1 -53 4 -53
21 0 11 5 20 11 20 12 0 75 26 99 41 16 10 31 16 55 24 20 6 19 36 -2 80 -19
39 -31 43 -54 18 -9 -10 -26 -25 -38 -33 -13 -8 -32 -23 -43 -32 -12 -10 -27
-18 -33 -18 -7 0 -15 -7 -19 -15 -3 -8 -12 -15 -21 -15 -8 0 -15 -5 -15 -10 0
-6 -11 -15 -25 -20 -14 -5 -25 -14 -25 -20 0 -5 -7 -10 -15 -10 -8 0 -15 -4
-15 -9 0 -4 -28 -26 -62 -49 -35 -22 -72 -49 -83 -59 -11 -10 -46 -36 -78 -58
l-59 -40 31 -27 c17 -16 38 -28 47 -28 9 0 47 32 85 70 38 39 74 68 79 65 14
-9 12 -57 -3 -80 -8 -11 -22 -44 -31 -74 -20 -61 -23 -56 64 -99 124 -61 122
-80 -12 -84 l-103 -3 -3 -30 c-1 -16 -7 -48 -12 -70 -5 -22 -11 -52 -15 -67
-10 -52 -32 -31 -59 55 -37 118 -40 122 -96 102 -25 -9 -67 -17 -95 -18 -76
-3 -69 19 25 81 73 49 79 56 74 80 -4 15 -14 35 -24 46 -17 17 -22 14 -143
-110 -247 -252 -337 -348 -337 -359 0 -19 23 -35 50 -35 21 0 35 14 75 75 62
93 81 96 77 10 -1 -33 -7 -75 -14 -94 -13 -41 1 -55 67 -71 22 -6 48 -15 57
-20 10 -6 24 -10 32 -10 7 0 19 -6 25 -14 16 -19 1 -28 -64 -38 -27 -4 -68
-11 -90 -16 l-40 -7 -1 -85 c-2 -118 -3 -120 -15 -120 -16 0 -34 25 -68 95
-37 78 -55 94 -79 71 -10 -9 -27 -16 -38 -16 -11 0 -36 -9 -57 -20 -92 -50
-97 -10 -8 78 39 39 71 74 71 79 0 4 -8 18 -18 31 -24 31 -44 21 -81 -36 -29
-48 -102 -153 -111 -162 -8 -8 -29 -44 -39 -65 -5 -11 -21 -33 -35 -48 -14
-15 -26 -30 -26 -33 0 -5 -40 -64 -50 -74 -3 -3 -20 -27 -39 -54 l-34 -49 22
-19 c13 -10 29 -18 36 -18 13 0 41 51 79 143 11 27 21 38 33 35 15 -3 18 -16
21 -83 3 -125 3 -125 65 -126 28 0 70 -6 92 -13 49 -14 59 -43 18 -51 -15 -4
-37 -10 -48 -15 -11 -5 -37 -14 -57 -20 -55 -17 -63 -31 -45 -87 29 -93 30
-143 3 -143 -10 0 -50 53 -96 126 -16 26 -57 33 -77 13 -14 -14 -49 -35 -85
-51 -16 -7 -28 -16 -28 -20 0 -4 -7 -8 -15 -8 -25 0 -17 35 21 91 20 30 39 56
44 59 21 14 20 49 -1 69 -28 26 -38 26 -45 4 -3 -10 -16 -40 -29 -68 -13 -27
-31 -68 -40 -90 -27 -66 -47 -109 -56 -125 -5 -8 -12 -22 -15 -30 -3 -8 -10
-22 -15 -30 -5 -8 -12 -22 -15 -30 -10 -27 -45 -104 -70 -153 -29 -59 -30 -74
-5 -82 28 -9 51 4 57 34 3 14 10 37 14 51 5 14 12 42 16 63 14 79 54 50 65
-48 13 -107 14 -108 123 -100 79 6 94 5 99 -8 6 -15 -33 -42 -127 -92 -10 -5
-24 -18 -30 -27 -11 -18 -9 -24 40 -121 16 -32 18 -73 5 -81 -4 -3 -39 24 -77
59 -37 36 -75 65 -85 65 -15 0 -28 -10 -106 -81 -37 -34 -63 -38 -63 -8 0 23
46 125 61 134 16 11 10 54 -10 65 -11 5 -22 10 -26 10 -11 0 -45 -84 -45 -112
0 -15 -4 -30 -10 -33 -5 -3 -10 -26 -10 -49 0 -27 -6 -48 -15 -56 -9 -7 -15
-29 -15 -54 0 -23 -7 -51 -15 -62 -8 -10 -15 -30 -15 -44 0 -14 -6 -37 -14
-52 -8 -14 -17 -49 -21 -77 -4 -27 -13 -55 -21 -62 -35 -29 11 -63 55 -39 19
10 21 20 21 96 0 66 3 86 15 90 22 9 44 -13 51 -52 3 -19 10 -37 15 -40 5 -3
9 -13 9 -23 0 -9 6 -25 13 -35 12 -17 19 -17 88 -6 41 7 80 17 86 22 7 6 19 8
27 5 26 -10 5 -44 -60 -97 -64 -52 -79 -81 -53 -107 26 -26 84 -141 76 -149
-9 -9 -52 12 -91 44 -16 13 -46 32 -66 42 l-38 19 -50 -59 c-28 -33 -52 -64
-54 -70 -2 -5 -14 -11 -28 -12 -17 -2 -24 2 -23 12 5 36 31 128 42 149 15 28
9 47 -18 54 -46 12 -52 -8 -62 -184 -12 -214 -28 -304 -53 -296 -18 6 -20 243
-2 292 8 22 16 70 18 106 3 45 9 72 21 83 13 13 17 35 17 91 0 41 5 77 10 80
5 3 10 32 10 64 0 35 6 65 15 77 8 10 15 40 15 65 0 29 6 51 15 59 8 7 15 29
15 50 0 21 7 43 15 50 8 7 15 27 15 44 0 18 7 41 15 52 8 10 15 30 15 42 0 13
9 35 20 49 11 14 20 34 20 43 0 10 7 31 15 46 8 16 15 39 15 51 0 12 5 25 10
28 6 3 10 16 10 29 0 12 7 31 15 42 8 10 15 31 15 45 0 15 7 32 15 39 8 7 15
23 15 35 0 12 7 28 15 35 8 7 15 23 15 35 0 12 7 28 15 35 8 7 15 20 15 30 0
10 7 23 15 30 8 7 15 21 15 31 0 9 7 24 15 33 8 8 15 21 15 29 0 8 6 20 14 26
8 7 17 23 20 36 4 14 11 25 16 25 6 0 10 6 10 13 0 8 9 24 20 37 11 12 40 65
65 116 26 52 50 94 56 94 5 0 9 8 9 19 0 10 7 24 15 31 8 7 15 17 15 22 0 6
14 27 30 48 17 21 30 41 30 44 0 11 74 106 82 106 4 0 8 5 8 11 0 10 43 71 77
109 62 68 93 107 152 185 69 92 326 358 416 430 58 47 106 89 189 167 34 32
65 58 70 58 4 0 27 15 50 32 22 18 47 37 54 43 7 5 21 17 31 25 22 19 52 38
71 47 8 3 31 18 50 33 19 15 42 30 50 34 8 3 38 20 65 36 28 16 61 35 75 42
14 7 27 15 30 18 11 11 66 47 83 53 9 3 17 11 17 17 0 5 8 10 19 10 10 0 24 7
31 15 7 8 20 15 30 15 10 0 23 7 30 15 7 8 18 15 25 15 7 0 18 7 25 15 7 8 20
15 30 15 10 0 23 7 30 15 7 8 21 15 32 15 11 0 26 7 34 15 9 8 24 15 33 15 10
0 24 7 31 15 7 8 23 15 35 15 12 0 28 7 35 15 7 8 24 15 39 15 14 0 35 7 45
15 11 8 30 15 42 15 13 0 25 4 29 9 3 5 18 12 34 16 16 3 35 13 42 21 6 8 24
14 39 14 16 0 30 7 34 15 3 9 18 15 39 15 19 0 40 7 47 15 7 8 29 15 49 15 20
0 45 7 55 15 11 8 36 15 57 15 20 0 42 7 49 15 7 9 29 15 54 15 23 0 48 6 54
12 7 7 41 16 75 20 143 16 212 30 227 43 12 10 40 15 92 15 45 0 90 6 111 15
23 10 69 15 126 15 89 0 128 14 74 26 -15 3 -44 10 -63 15 -39 10 -65 10 -220
-2z m603 -86 c3 -10 8 -35 12 -56 10 -59 26 -87 49 -87 36 1 150 18 169 25 13
6 17 2 17 -19 0 -21 -10 -30 -55 -52 -30 -15 -69 -39 -87 -54 -36 -30 -36 -26
13 -122 25 -49 25 -88 0 -88 -10 0 -25 7 -32 17 -22 26 -110 93 -122 93 -7 0
-35 -23 -64 -50 -66 -62 -92 -77 -104 -59 -12 19 -12 20 11 54 11 17 20 37 20
46 0 9 7 22 15 29 8 7 15 24 15 39 0 21 -11 34 -53 62 -29 20 -65 39 -80 43
-20 5 -27 13 -27 31 0 24 1 25 63 17 34 -4 82 -7 107 -7 l45 0 3 40 c2 22 8
44 13 50 5 5 9 17 9 28 0 10 5 27 10 38 9 15 15 17 30 9 10 -5 21 -18 23 -27z
m-323 -60 c0 -9 -11 -33 -25 -53 -24 -35 -25 -38 -10 -73 8 -19 26 -52 40 -73
34 -50 35 -115 0 -149 -20 -21 -34 -25 -84 -25 -65 0 -80 9 -101 60 -14 35
-14 34 31 136 l22 52 -21 41 -21 40 22 16 c12 8 39 18 60 22 20 3 40 10 43 14
10 16 44 10 44 -8z m1483 -152 c34 -13 34 -33 1 -100 -24 -52 -25 -55 -10 -99
22 -63 20 -86 -11 -122 -26 -31 -29 -32 -85 -26 -70 7 -94 18 -104 48 -14 41
8 121 40 147 34 29 59 82 58 128 l-1 46 43 -6 c23 -3 54 -11 69 -16z m-2270
-83 c62 -67 90 -113 100 -166 10 -53 -7 -75 -73 -95 -76 -22 -82 -22 -108 6
-38 41 -45 74 -26 135 17 52 17 58 1 101 -16 45 -16 46 4 64 12 9 26 17 32 17
6 0 37 -28 70 -62z m2942 -158 c18 0 75 -49 75 -65 0 -7 -13 -29 -30 -50 -28
-35 -30 -44 -30 -119 0 -73 -3 -84 -25 -109 -33 -35 -66 -35 -136 1 -38 19
-55 34 -57 50 -6 42 19 92 74 145 62 58 84 93 84 133 0 20 4 25 16 20 9 -3 22
-6 29 -6z m-3635 -105 c0 -5 22 -30 49 -56 37 -35 52 -58 59 -91 10 -50 -1
-69 -60 -99 -59 -30 -102 -25 -132 14 -23 30 -26 43 -25 113 0 43 -1 92 -3
109 -3 26 1 31 32 41 29 10 38 9 57 -5 12 -9 23 -20 23 -26z m2067 4 c51 -5
115 -9 142 -9 28 0 76 -7 108 -15 31 -8 78 -15 104 -15 26 0 60 -5 76 -11 15
-6 51 -14 78 -19 59 -9 132 -26 195 -46 25 -8 55 -14 67 -14 12 0 37 -6 55
-14 42 -17 94 -35 133 -46 48 -13 98 -31 128 -46 16 -8 35 -14 42 -14 7 0 26
-6 42 -14 15 -7 45 -21 66 -30 75 -31 104 -45 237 -111 222 -111 240 -121 413
-236 49 -33 93 -59 98 -59 5 0 9 -4 9 -9 0 -5 19 -20 43 -34 23 -14 51 -34 62
-44 11 -10 52 -43 90 -73 39 -30 72 -57 75 -61 3 -3 43 -39 90 -79 227 -195
550 -572 695 -812 5 -9 33 -54 60 -100 68 -113 70 -116 100 -173 14 -27 30
-57 35 -65 5 -8 11 -22 14 -30 3 -8 10 -22 15 -30 16 -26 87 -186 116 -260 9
-25 23 -57 31 -72 8 -14 14 -35 14 -45 0 -11 7 -28 15 -39 8 -10 15 -30 15
-44 0 -14 7 -34 15 -44 8 -11 15 -30 15 -43 0 -12 6 -37 14 -55 25 -61 46
-135 46 -164 1 -16 7 -40 15 -54 8 -14 15 -43 15 -65 1 -22 7 -58 15 -80 8
-22 15 -53 15 -70 0 -16 7 -55 15 -85 8 -30 15 -78 15 -105 0 -28 7 -82 15
-120 17 -83 21 -703 5 -770 -6 -22 -14 -83 -19 -135 -9 -94 -22 -173 -43 -260
-6 -25 -14 -67 -19 -95 -7 -50 -19 -100 -44 -185 -7 -25 -20 -72 -30 -105 -9
-33 -23 -73 -31 -88 -8 -16 -14 -37 -14 -47 0 -11 -6 -34 -14 -52 -8 -18 -22
-53 -31 -78 -9 -25 -23 -57 -31 -72 -8 -14 -14 -32 -14 -39 0 -18 -131 -292
-182 -379 -11 -19 -32 -57 -47 -83 -33 -60 -38 -68 -86 -142 -22 -33 -44 -68
-50 -77 -24 -40 -108 -160 -120 -172 -8 -8 -38 -45 -67 -82 -28 -38 -57 -73
-63 -79 -6 -5 -29 -32 -51 -60 -62 -78 -299 -314 -414 -412 -144 -123 -395
-310 -450 -336 -8 -4 -28 -16 -45 -27 -16 -11 -39 -24 -50 -30 -11 -6 -33 -19
-50 -30 -16 -11 -52 -31 -80 -45 -27 -14 -58 -30 -67 -35 -40 -22 -56 -30
-128 -65 -94 -46 -165 -77 -250 -110 -25 -9 -58 -22 -75 -29 -41 -18 -94 -36
-130 -46 -39 -11 -91 -29 -133 -46 -18 -8 -45 -14 -60 -14 -15 -1 -38 -7 -52
-15 -14 -8 -38 -14 -54 -15 -16 0 -52 -6 -80 -14 -94 -26 -191 -46 -221 -46
-16 0 -59 -6 -95 -15 -84 -19 -431 -46 -585 -45 -66 0 -183 7 -260 15 -77 8
-165 15 -195 15 -30 0 -77 7 -104 15 -27 8 -68 15 -91 15 -24 0 -62 7 -85 15
-23 8 -56 15 -72 15 -16 0 -37 4 -47 10 -10 5 -43 14 -72 19 -64 12 -131 29
-179 46 -19 7 -62 21 -95 30 -33 9 -73 23 -88 31 -16 8 -35 14 -42 14 -8 0
-31 7 -52 16 -63 28 -96 41 -143 59 -62 24 -233 103 -270 125 -8 5 -22 11 -30
14 -8 4 -28 15 -45 26 -16 11 -37 23 -45 26 -13 6 -177 105 -254 154 -44 28
-141 94 -146 99 -3 3 -24 19 -47 35 -24 16 -53 38 -65 50 -13 12 -43 37 -68
56 -25 19 -58 46 -74 60 -54 46 -381 374 -430 430 -51 60 -298 386 -310 410
-8 17 -19 36 -57 95 -14 22 -29 47 -32 55 -4 8 -16 29 -26 45 -35 54 -134 243
-155 295 -3 8 -10 22 -14 30 -12 21 -34 71 -72 165 -17 44 -38 94 -45 110 -7
17 -16 41 -18 55 -6 26 -31 100 -47 135 -4 11 -11 31 -13 45 -3 14 -10 39 -15
55 -17 50 -39 136 -57 220 -9 44 -23 108 -31 142 -8 34 -14 81 -14 103 0 23
-7 69 -15 103 -16 69 -35 352 -35 522 0 162 19 440 36 516 7 37 14 87 14 112
0 25 5 58 10 73 6 14 15 54 20 88 11 69 25 130 46 196 8 25 14 56 14 71 0 14
4 29 9 35 6 5 14 27 20 49 10 44 27 93 47 143 8 18 14 41 14 50 0 10 7 27 15
38 8 10 15 27 15 37 0 11 6 31 14 45 8 15 21 45 29 67 8 22 18 47 21 55 3 8
10 22 14 30 5 8 16 31 25 50 8 19 25 55 37 80 20 43 29 60 50 98 5 9 21 40 35
67 15 28 35 64 45 80 11 17 24 39 30 50 6 11 19 34 30 50 11 17 23 37 27 45 3
8 19 31 35 51 15 20 28 40 28 43 0 11 208 285 274 361 78 90 340 353 431 431
125 108 422 324 495 361 8 4 31 18 50 31 19 13 44 28 55 33 11 6 47 25 80 43
125 71 327 166 445 211 25 9 58 23 73 31 16 8 35 14 44 14 8 0 29 6 46 13 51
22 99 38 142 48 22 6 44 14 50 20 5 5 24 9 43 9 18 0 43 5 55 12 12 6 40 15
62 19 99 18 163 32 205 45 25 8 68 14 96 14 28 0 73 6 100 14 46 13 98 18 394
36 129 7 309 3 447 -11z m2323 -351 c0 -4 -16 -22 -35 -39 -19 -18 -35 -37
-35 -42 0 -6 -8 -19 -17 -29 -9 -10 -20 -43 -24 -74 -8 -58 -34 -98 -71 -110
-25 -8 -137 61 -149 93 -16 42 15 83 134 177 27 21 56 54 64 72 9 18 23 35 32
37 15 3 101 -69 101 -85z m-5008 -55 c77 -53 113 -101 104 -137 -7 -28 -95
-95 -134 -101 -46 -9 -81 35 -93 115 -3 25 -12 66 -19 92 -11 38 -11 49 -1 62
24 29 70 19 143 -31z m5551 -391 c15 -15 27 -35 27 -44 0 -8 -22 -38 -49 -66
-32 -33 -57 -71 -71 -109 -26 -71 -68 -108 -107 -98 -40 10 -123 96 -123 128
0 32 52 77 118 100 30 11 67 36 97 67 27 28 56 50 65 50 9 0 28 -13 43 -28z
m-6132 -83 c144 -61 164 -110 77 -191 -29 -26 -61 -48 -73 -48 -37 1 -76 45
-111 126 -39 90 -39 92 -18 122 20 29 38 28 125 -9z m6639 -501 c28 -47 26
-74 -8 -86 -15 -5 -50 -35 -77 -67 -114 -131 -121 -137 -162 -133 -34 3 -41 8
-70 58 -18 30 -33 65 -33 78 0 36 41 69 96 78 66 9 122 32 129 53 6 21 54 50
83 51 15 0 29 -11 42 -32z m-7038 -84 c33 -17 58 -51 58 -80 0 -26 -86 -134
-107 -134 -38 0 -89 43 -125 105 -41 68 -44 85 -27 117 10 19 17 20 92 13 45
-4 94 -13 109 -21z m7425 -579 c12 -22 23 -55 23 -72 0 -31 -2 -33 -38 -33
-43 0 -66 -13 -143 -86 -90 -84 -139 -87 -181 -9 -60 109 -13 176 113 159 49
-7 105 14 116 42 3 7 11 14 18 14 7 0 18 7 25 15 20 24 42 14 67 -30z m-7780
-55 c47 -29 51 -58 15 -135 -30 -64 -32 -65 -70 -65 -48 0 -111 42 -147 100
-29 46 -30 58 -10 87 15 22 24 23 150 31 17 1 45 -7 62 -18z m8060 -685 c25
-68 30 -125 11 -125 -7 0 -26 9 -43 20 -46 30 -70 25 -150 -35 -63 -48 -78
-55 -119 -55 -56 0 -72 20 -82 100 -5 48 -3 59 17 84 24 30 28 31 171 10 46
-6 49 -5 80 30 26 30 39 36 63 34 27 -3 32 -9 52 -63z m-8310 -8 c31 -28 36
-49 23 -99 -17 -63 -44 -88 -96 -88 -25 0 -47 6 -54 15 -7 8 -18 15 -25 15
-13 0 -75 88 -75 107 0 17 29 37 89 60 63 25 104 22 138 -10z m-142 -707 c38
-24 49 -64 35 -125 -20 -88 -92 -100 -191 -31 -53 36 -64 48 -64 72 0 25 8 32
75 66 86 44 101 45 145 18z m8509 -188 c4 -10 0 -56 -8 -102 -14 -77 -14 -86
1 -102 9 -10 30 -18 46 -18 17 0 44 -4 61 -10 17 -5 44 -12 59 -15 20 -4 27
-11 25 -22 -3 -19 -43 -31 -150 -48 -52 -8 -58 -26 -42 -115 7 -41 13 -83 13
-93 1 -28 -28 -33 -47 -6 -23 31 -70 109 -82 137 -11 26 -22 27 -58 9 -99 -50
-120 -59 -137 -56 -11 3 -20 9 -20 15 0 10 66 93 108 136 22 23 22 21 -14 60
-17 18 -46 52 -66 75 -52 63 -29 82 50 41 81 -42 95 -48 110 -48 13 0 77 91
77 110 0 12 50 70 60 70 5 0 11 -8 14 -18z m-8719 -34 c53 -116 92 -152 124
-114 6 7 26 16 43 20 17 3 40 13 49 22 21 19 53 15 56 -6 2 -8 -24 -44 -57
-80 -33 -36 -60 -70 -60 -77 0 -7 24 -38 53 -69 28 -31 56 -62 60 -70 21 -36
-30 -46 -70 -14 -14 11 -32 20 -40 20 -8 0 -28 8 -43 17 -25 14 -31 15 -45 3
-10 -8 -21 -23 -26 -35 -24 -57 -67 -119 -87 -126 -22 -8 -23 -7 -18 19 3 15
8 61 12 103 7 83 6 85 -51 104 -31 11 -41 31 -31 70 4 16 16 26 43 32 l38 9
-4 102 c-3 98 -2 102 18 102 14 0 26 -11 36 -32z m8695 -748 c0 -17 -9 -47
-19 -68 -10 -20 -20 -54 -22 -75 -4 -41 4 -49 81 -80 19 -8 47 -19 63 -25 60
-25 20 -50 -93 -59 -92 -7 -86 1 -98 -128 -5 -63 -11 -80 -24 -83 -10 -2 -19
6 -23 20 -3 13 -10 32 -14 43 -5 11 -17 43 -28 70 l-19 50 -49 -3 c-28 -2 -68
-10 -90 -18 -54 -18 -65 -18 -65 5 0 11 19 34 43 53 23 18 55 45 71 59 29 27
29 27 12 61 -9 18 -31 54 -47 81 -32 49 -33 84 -2 73 9 -4 47 -27 85 -52 72
-48 80 -49 114 -4 7 8 22 26 34 40 12 14 29 35 37 48 23 34 53 29 53 -8z
m-8351 -486 c27 -34 43 -96 35 -129 -10 -40 -52 -68 -94 -61 -171 28 -175 30
-178 58 -2 20 7 38 39 73 78 85 159 109 198 59z m8059 16 c19 -5 51 -25 72
-44 39 -35 90 -66 109 -66 6 0 35 20 66 45 64 53 71 48 62 -40 -5 -53 -11 -76
-47 -180 -17 -49 -40 -72 -40 -39 0 28 -71 105 -115 125 -37 16 -45 17 -80 4
-22 -8 -51 -14 -65 -15 -25 0 -67 23 -82 44 -11 16 -10 81 3 113 23 61 50 73
117 53z m-121 -302 c80 -78 75 -78 153 -9 70 62 110 78 110 42 0 -11 -4 -22
-9 -25 -12 -8 -71 -131 -71 -150 0 -8 31 -35 69 -60 88 -59 99 -71 72 -85 -14
-8 -39 -7 -91 4 -39 8 -77 15 -84 15 -14 0 -46 -73 -46 -106 0 -11 -9 -39 -21
-63 -25 -53 -45 -43 -53 27 -3 26 -9 70 -13 97 l-8 50 -102 -4 c-98 -3 -103
-2 -103 17 0 13 10 24 28 31 53 20 127 68 130 83 2 9 -8 43 -22 77 -30 70 -34
111 -10 111 9 0 41 -24 71 -52z m-7690 -395 c33 -49 55 -110 48 -132 -4 -12
-24 -33 -46 -47 -34 -21 -47 -24 -90 -18 -32 4 -65 2 -91 -7 -38 -12 -42 -12
-59 10 -11 13 -19 31 -19 40 0 10 38 54 84 99 73 72 88 82 119 82 28 0 40 -6
54 -27z m7567 12 c18 -9 58 -42 90 -75 72 -73 99 -77 173 -26 90 62 94 17 12
-150 -21 -44 -39 -89 -39 -100 0 -22 -46 -48 -56 -32 -4 6 -8 25 -9 43 -3 47
-57 112 -103 125 -20 5 -64 10 -98 10 -53 0 -63 3 -87 28 -15 15 -27 35 -27
44 0 29 30 102 52 125 25 27 48 29 92 8z m-160 -287 c46 -69 64 -82 93 -65 11
7 50 29 85 50 63 36 98 46 98 28 0 -5 -7 -14 -15 -21 -8 -7 -15 -16 -15 -21 0
-5 -23 -39 -52 -75 l-52 -66 77 -75 c43 -41 75 -79 72 -84 -9 -14 -49 -11 -81
6 -16 8 -38 15 -50 15 -11 0 -29 6 -40 14 -17 13 -22 12 -41 -6 -13 -12 -23
-27 -23 -33 0 -12 -21 -61 -45 -105 -8 -14 -22 -25 -32 -25 -16 0 -18 9 -15
91 5 112 -3 124 -86 125 -79 1 -106 11 -110 37 -3 16 3 23 25 28 109 25 158
52 149 83 -2 9 -7 34 -11 56 -3 22 -11 52 -17 67 -5 15 -8 34 -5 42 10 26 49
-3 91 -66z m-7060 -341 c43 -43 77 -113 70 -142 -9 -35 -37 -52 -118 -69 -46
-9 -76 -22 -95 -40 -31 -30 -37 -31 -74 -13 -21 9 -27 19 -27 43 0 29 10 45
113 178 24 31 74 66 95 66 7 0 23 -10 36 -23z m6883 -26 c21 -21 62 -66 92
-100 63 -73 81 -76 155 -26 58 38 76 43 76 20 0 -23 -26 -82 -50 -113 -12 -15
-39 -56 -62 -92 -42 -67 -115 -150 -131 -150 -9 0 -7 27 9 128 6 41 5 44 -45
93 -46 46 -58 51 -112 59 -99 14 -130 60 -93 133 51 99 98 113 161 48z m-216
-246 c43 -89 57 -99 95 -70 10 8 26 15 34 15 8 0 32 9 53 20 49 26 67 26 67
-3 0 -16 -20 -41 -65 -81 -36 -31 -65 -64 -65 -73 0 -8 22 -43 48 -77 49 -61
70 -106 49 -106 -15 0 -136 60 -142 71 -4 5 -16 9 -29 9 -17 0 -35 -19 -75
-80 -42 -64 -57 -80 -76 -80 -29 0 -32 18 -10 61 9 16 18 58 21 92 l6 62 -54
18 c-30 9 -61 17 -69 17 -8 0 -27 11 -44 24 l-30 24 28 11 c16 6 39 11 52 11
13 0 47 5 75 11 l50 11 0 99 c0 92 1 99 20 99 15 0 30 -21 61 -85z m-6215
-284 c32 -19 104 -101 104 -117 0 -21 -55 -66 -114 -93 -34 -15 -81 -47 -103
-70 -23 -22 -47 -41 -54 -41 -17 0 -69 50 -69 66 0 20 39 82 56 88 8 3 30 39
50 81 33 69 63 105 89 105 5 0 24 -9 41 -19z m5956 -8 c14 -16 36 -53 49 -83
27 -66 94 -140 126 -140 13 0 46 11 73 25 107 54 120 9 26 -89 -135 -141 -170
-177 -200 -199 -68 -53 -87 -19 -41 73 31 61 31 92 3 131 -22 29 -116 89 -140
89 -19 0 -78 62 -78 83 0 37 102 137 141 137 8 0 27 -12 41 -27z m-256 -157
c1 -3 26 -104 31 -128 9 -48 24 -52 106 -29 40 12 83 21 95 21 44 0 38 -36
-11 -65 -18 -10 -34 -21 -37 -24 -3 -4 -24 -19 -47 -34 -45 -29 -53 -47 -28
-67 8 -7 15 -18 15 -24 0 -6 15 -34 33 -62 36 -54 37 -74 5 -74 -18 0 -46 20
-118 84 -38 34 -54 29 -124 -44 -67 -70 -106 -89 -106 -51 0 10 6 24 14 30 8
7 18 26 21 42 4 17 13 42 21 57 28 54 20 68 -61 107 -69 33 -103 63 -88 79 3
3 48 6 100 6 93 0 94 0 104 28 6 15 13 52 16 82 7 77 9 83 35 74 13 -3 23 -7
24 -8z m-5127 -322 c90 -49 101 -99 35 -158 -126 -113 -164 -155 -164 -186 l0
-30 -37 15 c-44 19 -72 42 -83 70 -6 16 1 29 33 62 40 42 67 97 67 141 0 48
51 112 88 112 8 0 35 -11 61 -26z m4834 0 c15 -14 29 -43 32 -63 4 -20 8 -48
11 -62 3 -14 25 -49 50 -77 52 -59 72 -64 144 -31 48 22 90 19 90 -7 0 -9 -15
-30 -32 -47 -31 -28 -203 -160 -239 -182 -50 -31 -100 -55 -114 -55 -29 0 -16
53 30 125 25 38 45 75 45 82 0 18 -79 97 -126 126 -42 26 -84 81 -84 111 0 23
110 106 141 106 15 0 38 -11 52 -26z m-4597 -169 c14 -39 28 -78 31 -87 7 -22
34 -23 99 -3 64 19 114 20 114 0 0 -8 -34 -40 -75 -71 -75 -57 -89 -80 -60
-104 8 -7 15 -16 15 -21 0 -5 16 -32 36 -60 38 -55 39 -85 2 -73 -12 3 -50 28
-84 55 -34 27 -70 49 -80 48 -11 0 -41 -27 -69 -59 -33 -38 -58 -59 -73 -59
-21 -1 -23 2 -17 32 4 17 14 50 22 72 27 74 28 92 1 100 -22 8 -117 48 -148
64 -8 5 -15 14 -15 22 0 11 24 15 105 19 83 4 105 8 106 20 8 64 29 167 37
178 14 18 23 6 53 -73z m4326 -10 c3 -47 11 -92 18 -100 9 -11 35 -15 105 -15
70 0 94 -3 98 -14 6 -15 -11 -36 -29 -36 -7 0 -34 -11 -61 -24 -26 -13 -56
-27 -67 -30 -16 -5 -17 -13 -11 -53 4 -26 15 -64 26 -85 29 -57 23 -97 -13
-82 -7 3 -37 34 -67 70 -29 35 -60 64 -68 64 -11 0 -65 -32 -83 -50 -18 -18
-72 -50 -85 -50 -22 0 -19 42 5 70 11 13 20 27 20 32 0 5 10 22 21 38 24 32
20 80 -6 80 -8 0 -15 4 -15 8 0 4 -21 21 -46 37 -45 29 -69 57 -57 69 10 10
45 7 114 -11 36 -9 73 -14 81 -10 9 3 26 37 38 79 25 82 35 98 60 98 15 0 18
-13 22 -85z m-3937 -186 c68 -24 75 -31 75 -79 0 -42 -14 -64 -88 -143 l-54
-57 7 -53 c4 -28 16 -63 27 -76 31 -40 6 -43 -78 -9 -84 35 -144 74 -144 94 0
7 26 37 57 67 l58 55 0 79 c0 79 12 114 43 132 24 14 30 14 97 -10z m3582 -3
c25 -22 28 -31 29 -93 1 -37 2 -76 3 -86 0 -10 22 -39 48 -63 l47 -45 83 6
c72 6 84 5 89 -9 11 -29 -33 -63 -170 -130 -203 -99 -276 -118 -276 -73 0 22
55 107 69 107 9 0 41 71 41 91 0 8 -23 37 -51 64 -93 91 -122 161 -81 198 21
19 101 55 124 56 9 1 30 -10 45 -23z m-3327 -124 c33 -55 52 -78 68 -80 20 -3
76 18 134 49 26 14 58 11 58 -5 0 -8 -29 -45 -65 -83 -43 -45 -62 -74 -59 -85
5 -17 39 -61 79 -102 27 -28 50 -74 41 -83 -3 -4 -49 15 -100 41 -52 27 -101
46 -109 43 -9 -3 -34 -38 -58 -77 -33 -56 -46 -70 -63 -68 -24 3 -25 17 -7
117 9 46 9 67 1 76 -10 12 -54 26 -130 41 -14 3 -35 7 -47 10 -13 2 -23 11
-23 18 0 17 90 46 140 46 17 0 41 5 52 11 19 10 20 17 14 100 -10 138 8 145
74 31z m3043 53 c-9 -64 -12 -163 -4 -175 6 -8 35 -17 68 -21 98 -12 128 -23
128 -44 0 -16 -8 -21 -40 -23 -22 -2 -44 -8 -49 -13 -6 -5 -22 -9 -37 -9 -15
0 -36 -8 -48 -17 -21 -17 -21 -21 -10 -101 6 -45 8 -89 5 -97 -8 -21 -35 -19
-44 3 -12 29 -94 152 -102 152 -4 0 -13 -7 -20 -15 -7 -8 -18 -15 -26 -15 -14
0 -98 -43 -120 -61 -15 -12 -34 -4 -34 16 0 7 29 48 65 90 36 42 65 79 65 81
0 3 -29 36 -65 72 -83 85 -87 128 -9 87 16 -8 36 -15 44 -15 8 0 24 -7 34 -15
11 -8 32 -15 47 -15 22 0 32 9 53 48 15 26 32 60 39 75 9 22 17 27 37 25 14
-2 24 -7 23 -13z m-2613 -176 c54 -12 86 -43 77 -76 -3 -10 -8 -30 -11 -44 -3
-14 -26 -52 -51 -84 -52 -67 -57 -101 -21 -142 63 -71 86 -102 86 -113 0 -15
-111 -9 -160 10 -19 7 -60 22 -90 34 -30 11 -66 30 -79 42 l-24 23 41 17 c43
16 93 70 106 112 4 12 0 51 -9 87 -14 59 -14 67 0 95 25 48 54 56 135 39z
m2215 -13 c28 -28 41 -86 26 -114 -16 -29 -14 -88 4 -122 25 -49 73 -78 142
-86 35 -3 71 -12 80 -20 16 -11 16 -14 3 -28 -42 -42 -327 -122 -447 -125 -29
-1 -33 2 -33 24 0 16 11 32 31 47 40 30 108 114 115 145 5 18 -4 35 -40 77
-51 60 -66 92 -66 140 0 37 16 55 64 72 53 20 95 16 121 -10z m-1955 -63 c30
-38 55 -70 57 -72 6 -9 52 11 101 44 66 43 102 54 102 31 0 -9 -22 -49 -50
-89 -27 -40 -50 -78 -50 -84 0 -6 31 -36 69 -67 68 -56 86 -79 75 -97 -8 -14
-40 -11 -53 5 -12 14 -131 41 -152 34 -6 -2 -26 -40 -44 -83 -25 -59 -38 -80
-52 -80 -15 0 -19 12 -25 89 -4 49 -13 95 -19 102 -8 10 -36 14 -94 14 -134 0
-132 39 5 86 30 10 61 22 68 27 14 11 16 49 3 63 -10 11 -31 126 -24 137 11
18 33 2 83 -60z m1676 54 c3 -8 -4 -37 -16 -66 -23 -58 -27 -130 -7 -135 65
-20 158 -60 168 -72 20 -25 -6 -34 -101 -34 -53 0 -91 -5 -98 -12 -8 -8 -12
-46 -12 -105 0 -82 -2 -93 -17 -93 -28 0 -41 13 -49 44 -4 17 -13 41 -20 55
-8 14 -14 31 -14 37 0 22 -37 46 -57 36 -10 -5 -36 -13 -57 -17 -22 -3 -49
-13 -60 -21 -26 -18 -66 -18 -66 0 0 7 15 27 33 44 55 54 112 102 120 102 13
0 7 20 -15 53 -13 18 -25 34 -28 37 -18 18 -50 72 -50 85 0 22 42 19 73 -5 14
-11 28 -20 31 -20 4 0 20 -10 36 -22 38 -28 54 -20 120 60 51 61 76 75 86 49z
m-984 -114 c23 -21 53 -48 66 -60 20 -19 28 -21 46 -11 21 11 75 58 105 91 8
9 23 17 33 17 24 0 24 -40 -1 -88 -50 -97 -51 -110 -8 -134 13 -7 46 -25 73
-40 88 -48 95 -98 10 -73 -23 7 -66 14 -96 16 -54 4 -55 3 -72 -31 -9 -19 -17
-49 -18 -66 -1 -72 -53 -138 -64 -81 -7 31 -16 86 -23 129 -8 55 -19 60 -99
47 -147 -23 -138 -23 -131 -4 4 9 7 21 7 26 0 5 17 17 38 27 109 56 122 66
122 98 0 17 -7 37 -15 44 -8 7 -15 18 -15 24 0 6 -9 28 -20 49 -36 67 -3 77
62 20z"/>
<path d="M5023 9500 c-55 -23 -54 -16 -48 -540 3 -266 8 -487 11 -491 10 -17
-24 -22 -126 -20 -93 2 -112 -1 -148 -19 -48 -25 -93 -79 -111 -130 -17 -51
-17 -2180 0 -2230 16 -46 45 -85 89 -118 34 -26 40 -27 160 -27 l125 0 0 -450
c0 -422 1 -452 19 -477 15 -23 26 -28 62 -28 78 0 76 -16 73 502 l-2 453 130
0 129 0 41 33 c23 18 52 49 65 70 l23 37 0 1120 0 1120 -26 40 c-57 87 -99
105 -246 105 l-118 0 3 503 c3 474 2 505 -15 525 -21 25 -60 35 -90 22z m320
-1214 c17 -13 18 -66 18 -1101 0 -703 -3 -1091 -10 -1098 -7 -7 -422 -13 -577
-7 -32 1 -34 46 -34 1105 0 935 1 1058 15 1085 l16 30 277 0 c218 -1 281 -4
295 -14z"/>
<path d="M7162 8939 l-33 -21 1 -350 c1 -192 -1 -353 -5 -356 -3 -4 -57 -5
-119 -3 -108 3 -114 2 -162 -26 -27 -16 -61 -47 -76 -69 l-27 -39 -1 -608 0
-607 24 -39 c53 -83 133 -114 263 -102 48 4 92 5 96 1 5 -4 8 -158 7 -343 l-1
-335 27 -21 c15 -12 35 -21 46 -21 30 0 78 29 79 48 0 9 0 165 -1 346 l-1 329
102 -5 c142 -7 224 23 268 98 21 34 21 48 21 649 0 576 -1 616 -18 644 -19 32
-46 54 -100 85 -29 15 -51 18 -150 15 l-117 -4 -1 355 -2 354 -27 23 c-32 28
-51 29 -93 2z m341 -891 c15 -12 17 -60 17 -583 1 -528 -1 -571 -17 -582 -23
-18 -550 -18 -588 -1 l-25 11 0 565 c0 512 2 567 17 584 15 17 38 18 298 18
209 0 285 -3 298 -12z"/>
<path d="M8232 8187 c-21 -23 -22 -30 -24 -368 l-3 -344 -105 3 c-144 5 -198
-18 -256 -110 l-24 -38 0 -829 c0 -724 2 -830 15 -841 8 -7 15 -18 15 -24 0
-14 42 -54 82 -79 22 -14 53 -17 153 -17 l125 0 0 -340 c0 -327 1 -341 20
-360 12 -12 33 -20 55 -20 22 0 43 8 55 20 19 19 20 33 20 360 l0 340 125 0
c115 0 129 2 163 24 41 26 59 45 85 93 16 29 17 91 17 852 l0 821 -24 38 c-58
91 -112 115 -256 110 l-105 -3 -3 344 c-2 338 -3 345 -24 368 -14 15 -33 23
-53 23 -20 0 -39 -8 -53 -23z m347 -877 c21 -11 21 -13 21 -797 0 -718 -1
-788 -17 -805 -15 -17 -38 -18 -304 -18 -275 0 -289 1 -299 19 -7 13 -10 283
-10 804 0 782 0 785 21 798 26 18 555 17 588 -1z"/>
<path d="M6080 7854 l-31 -27 3 -618 3 -619 -128 0 c-134 0 -164 -8 -214 -55
-45 -43 -53 -76 -53 -220 0 -114 3 -142 19 -173 46 -89 107 -116 259 -117
l114 0 -2 -637 -1 -636 34 -26 c41 -31 64 -32 97 -5 l24 20 1 642 0 642 105 0
c131 0 189 17 241 68 46 47 51 73 47 253 -3 124 -4 132 -30 166 -49 65 -90 78
-239 78 l-131 0 3 624 3 625 -25 20 c-33 28 -62 26 -99 -5z m361 -1421 c1 -5
2 -59 3 -121 1 -98 -1 -115 -16 -123 -9 -5 -144 -9 -300 -9 -219 1 -287 4
-300 14 -15 11 -18 30 -18 118 0 67 4 108 12 116 14 14 617 18 619 5z"/>
<path d="M3386 6931 c-44 -29 -66 -70 -66 -122 0 -40 6 -53 38 -89 36 -40 41
-43 94 -44 49 0 62 4 94 30 67 54 70 144 7 208 -32 32 -42 36 -87 36 -33 0
-61 -7 -80 -19z"/>
<path d="M9847 6917 c-64 -54 -68 -141 -9 -201 57 -59 137 -58 196 2 33 32 36
40 36 92 0 54 -3 60 -41 99 -38 37 -46 41 -93 41 -43 0 -57 -5 -89 -33z"/>
<path d="M8243 4663 c-7 -2 -13 -10 -13 -17 0 -10 78 -121 155 -221 22 -28 19
-40 -20 -93 -128 -171 -165 -226 -158 -233 4 -4 52 -5 105 -2 l98 6 31 66 c17
36 35 76 40 89 8 22 10 22 34 6 14 -9 25 -23 25 -30 0 -8 15 -41 32 -74 l33
-60 65 0 c36 0 82 -3 102 -6 59 -10 58 13 -6 96 -31 40 -56 75 -56 79 0 4 -12
21 -27 38 -39 43 -63 76 -63 83 0 4 38 57 85 118 92 123 109 149 98 155 -5 3
-51 2 -103 -2 l-95 -6 -35 -73 c-22 -45 -40 -72 -49 -70 -8 2 -30 35 -50 73
l-36 70 -70 1 c-38 0 -79 3 -90 6 -11 4 -26 4 -32 1z"/>
<path d="M7729 4650 c0 -3 -1 -129 -1 -280 l0 -275 81 -1 c44 0 85 2 90 6 8 4
7 33 0 94 -14 118 -14 119 114 102 116 -15 119 -13 115 71 l-3 58 -108 -3
c-118 -4 -137 3 -137 47 0 50 8 53 131 51 147 -3 151 -3 158 9 4 5 4 36 1 68
l-5 58 -217 0 c-120 0 -218 -2 -219 -5z"/>
<path d="M4340 4371 c0 -149 3 -271 8 -273 4 -2 105 -2 225 0 l217 3 0 58 c0
35 -5 62 -12 68 -8 5 -63 6 -133 2 -66 -3 -123 -4 -127 -2 -4 2 -4 96 -1 208
l6 205 -91 0 -92 0 0 -269z"/>
<path d="M6555 4523 c-26 -7 -55 -33 -55 -50 0 -26 -28 -12 -34 17 l-6 31 -62
-3 c-58 -3 -63 -5 -62 -25 0 -13 1 -106 2 -208 l2 -185 80 0 80 0 -6 113 c-6
102 -5 114 13 136 15 18 34 26 69 30 l49 6 3 64 c4 78 -8 90 -73 74z"/>
<path d="M4910 4500 c-19 -11 -43 -29 -52 -41 -19 -23 -24 -64 -8 -74 15 -9
131 13 150 30 24 22 82 19 108 -5 25 -24 25 -25 12 -51 -9 -16 -22 -19 -93
-19 -133 -1 -197 -44 -197 -132 0 -43 33 -96 68 -109 41 -16 172 -6 187 15 16
21 54 21 70 -1 15 -21 122 -30 154 -14 37 20 25 91 -15 91 -24 0 -24 0 -24
116 0 134 -9 158 -74 192 -57 30 -232 31 -286 2z m213 -253 c-2 -37 -26 -58
-72 -64 -74 -10 -107 35 -54 77 21 16 38 20 77 18 49 -3 51 -4 49 -31z"/>
<path d="M5362 4463 c3 -65 -3 -62 101 -48 53 7 57 6 57 -13 0 -11 -16 -37
-35 -58 -19 -22 -35 -44 -35 -51 0 -6 -3 -13 -7 -15 -19 -8 -82 -116 -85 -143
l-3 -30 188 -5 c103 -3 192 -3 197 -2 12 4 13 82 2 100 -7 10 -24 10 -78 2
-38 -5 -75 -10 -81 -10 -22 0 -14 46 13 71 14 13 35 39 47 59 11 19 40 61 64
92 25 33 43 67 43 82 l0 26 -195 0 -196 0 3 -57z"/>
<path d="M5868 4494 c-47 -30 -72 -67 -63 -93 6 -19 12 -20 68 -15 37 4 73 14
89 25 57 40 138 11 124 -44 -6 -24 -10 -25 -103 -29 -121 -5 -163 -26 -182
-88 -14 -47 0 -109 32 -137 28 -26 186 -26 214 0 25 22 52 22 68 0 13 -18 106
-30 150 -19 24 6 26 11 23 48 -3 36 -7 43 -28 48 -25 6 -25 7 -30 131 -4 107
-8 128 -25 146 -42 43 -78 53 -192 52 -97 0 -112 -3 -145 -25z m222 -239 c0
-40 -42 -75 -88 -75 -64 0 -83 42 -36 79 19 15 41 21 75 21 46 0 49 -2 49 -25z"/>
<path d="M6709 4516 c-2 -2 -3 -81 -2 -175 1 -157 3 -173 23 -200 25 -37 85
-55 146 -46 37 5 52 13 102 55 17 15 34 2 30 -23 -3 -20 3 -23 52 -28 30 -3
58 -4 63 -2 4 2 7 99 7 214 l0 210 -77 -3 -76 -3 2 -136 2 -137 -27 -21 c-34
-27 -69 -27 -87 -1 -11 16 -13 50 -9 160 l5 140 -75 0 c-41 0 -77 -2 -79 -4z"/>
<path d="M7268 4487 c-43 -33 -43 -33 -43 -96 0 -57 3 -66 26 -83 27 -20 68
-33 159 -49 60 -11 80 -23 80 -49 0 -22 -19 -30 -73 -30 -27 0 -48 7 -62 20
-29 28 -142 40 -151 17 -8 -22 28 -70 73 -98 33 -21 50 -23 143 -23 94 0 109
2 142 24 58 39 84 112 56 163 -23 44 -51 56 -186 79 -45 7 -66 16 -73 30 -24
45 55 66 109 29 36 -26 138 -37 146 -16 11 30 -15 65 -71 98 -24 13 -54 17
-131 17 -98 0 -101 -1 -144 -33z"/>
<path d="M7162 11468 c-135 -15 -134 -38 1 -38 62 0 99 -5 112 -14 12 -8 57
-15 108 -18 48 -2 93 -10 99 -16 7 -7 42 -12 83 -12 47 0 78 -5 91 -15 10 -8
39 -15 64 -15 25 0 58 -7 74 -15 15 -8 43 -15 60 -15 18 0 41 -7 52 -15 10 -8
35 -15 55 -15 20 0 42 -7 49 -15 7 -8 29 -15 50 -15 21 0 43 -7 50 -15 7 -8
25 -15 40 -15 15 0 33 -7 40 -15 7 -8 25 -15 39 -15 15 0 36 -7 47 -15 10 -8
31 -15 45 -15 14 0 34 -7 45 -15 10 -8 29 -15 40 -15 12 0 27 -7 34 -15 7 -8
23 -15 35 -15 12 0 28 -7 35 -15 7 -8 23 -15 35 -15 12 0 28 -7 35 -15 7 -8
20 -15 29 -15 10 0 26 -7 37 -15 10 -8 26 -15 35 -15 9 0 22 -7 29 -15 7 -8
20 -15 30 -15 10 0 23 -7 30 -15 7 -8 21 -15 32 -15 10 0 21 -7 24 -15 4 -8
14 -15 23 -15 9 0 22 -5 28 -11 12 -12 30 -22 108 -63 28 -15 64 -35 80 -46
17 -11 39 -24 50 -30 11 -6 34 -19 50 -30 17 -11 40 -24 53 -30 12 -5 22 -14
22 -20 0 -5 6 -10 14 -10 8 0 16 -7 20 -15 3 -8 10 -15 17 -15 6 0 28 -13 49
-30 21 -16 42 -30 46 -30 5 0 19 -11 31 -23 12 -13 41 -36 65 -53 37 -25 73
-54 138 -114 9 -8 32 -26 51 -40 51 -36 99 -81 249 -230 141 -141 280 -290
280 -301 0 -4 27 -35 60 -70 33 -35 60 -70 60 -77 0 -7 7 -15 15 -18 8 -4 15
-12 15 -19 0 -7 7 -15 15 -19 8 -3 15 -12 15 -21 0 -8 5 -15 10 -15 6 0 15
-11 20 -25 5 -14 14 -25 20 -25 5 0 10 -7 10 -15 0 -8 5 -15 10 -15 6 0 15
-10 20 -22 13 -30 33 -61 43 -69 10 -7 31 -42 46 -76 6 -13 15 -23 21 -23 5 0
10 -9 10 -19 0 -11 5 -23 11 -26 5 -4 15 -17 20 -28 5 -12 18 -35 29 -52 11
-16 24 -39 30 -50 6 -11 19 -33 30 -50 11 -16 22 -37 26 -45 3 -8 10 -22 15
-30 5 -8 13 -25 18 -37 6 -11 15 -24 20 -28 6 -3 11 -14 11 -24 0 -10 7 -24
15 -31 8 -7 15 -21 15 -32 0 -11 7 -26 15 -34 8 -9 15 -24 15 -33 0 -10 7 -24
15 -31 8 -7 15 -23 15 -35 0 -12 7 -28 15 -35 8 -7 15 -23 15 -35 0 -12 7 -28
15 -35 8 -7 15 -23 15 -35 0 -12 7 -28 15 -35 8 -7 15 -23 15 -37 0 -13 7 -31
15 -39 8 -9 15 -28 15 -43 0 -16 7 -34 15 -41 8 -7 15 -24 15 -39 0 -14 7 -35
15 -45 8 -11 15 -31 15 -45 0 -14 7 -35 15 -45 8 -11 15 -34 15 -52 0 -17 7
-37 15 -44 8 -7 15 -29 15 -49 0 -20 7 -45 15 -55 8 -11 15 -38 15 -60 0 -23
7 -50 15 -60 8 -11 15 -40 15 -65 0 -25 7 -55 15 -65 10 -13 15 -44 15 -90 1
-47 6 -78 15 -90 10 -13 15 -43 15 -87 0 -36 7 -86 15 -109 10 -27 15 -80 15
-146 0 -56 4 -105 9 -108 12 -8 35 106 34 174 0 122 -31 370 -58 465 -20 72
-32 117 -60 235 -14 58 -35 137 -46 175 -11 39 -30 106 -43 150 -13 44 -48
139 -79 212 -32 72 -57 134 -57 137 0 15 -233 482 -271 543 -57 91 -220 333
-275 408 -24 33 -56 78 -71 100 -14 22 -51 69 -82 104 -102 118 -475 492 -561
563 -47 39 -92 78 -100 88 -16 17 -29 26 -146 104 -32 21 -79 56 -104 77 -26
22 -49 39 -53 39 -4 0 -27 16 -53 35 -25 19 -51 35 -58 35 -7 0 -35 17 -62 38
-75 57 -142 99 -224 138 -363 173 -387 184 -525 242 -135 56 -191 75 -335 112
-47 13 -105 29 -130 37 -25 8 -106 27 -180 43 -74 16 -171 38 -215 49 -87 22
-266 31 -373 19z"/>
<path d="M2176 6468 c-10 -28 -17 -99 -26 -232 -9 -137 -9 -139 20 -225 29
-87 62 -222 85 -341 6 -36 21 -99 33 -140 11 -41 25 -103 31 -138 6 -35 29
-105 52 -155 73 -161 129 -292 129 -301 0 -3 13 -34 28 -68 16 -35 43 -99 62
-143 39 -96 62 -140 104 -205 17 -27 53 -84 79 -127 55 -89 92 -146 159 -247
26 -39 56 -87 68 -106 38 -64 96 -140 176 -229 43 -48 106 -118 139 -156 183
-208 559 -555 601 -555 7 0 18 -9 24 -20 10 -19 111 -95 225 -170 29 -19 84
-57 122 -84 37 -27 92 -60 120 -73 29 -13 55 -28 58 -33 6 -9 413 -211 510
-253 33 -14 101 -40 150 -58 50 -17 104 -37 120 -43 17 -7 62 -23 100 -34 39
-12 105 -33 147 -47 43 -13 114 -31 159 -40 44 -8 85 -17 89 -20 12 -8 108
-26 155 -30 22 -2 69 -10 105 -18 36 -8 113 -18 171 -21 95 -6 130 -3 237 20
51 11 5 24 -84 24 -61 0 -107 5 -131 15 -21 9 -67 15 -112 15 -52 0 -83 5 -97
15 -12 9 -43 14 -85 15 -47 0 -70 4 -79 15 -8 9 -30 15 -59 15 -25 0 -59 7
-75 15 -15 8 -45 15 -66 15 -21 0 -43 7 -50 15 -7 8 -29 15 -50 15 -21 0 -43
7 -50 15 -7 9 -29 15 -51 15 -20 0 -44 7 -53 15 -8 8 -28 15 -44 15 -16 0 -35
7 -42 15 -7 8 -27 15 -45 15 -18 0 -38 7 -45 15 -7 8 -23 15 -36 15 -12 0 -29
7 -38 15 -8 8 -26 15 -39 15 -14 0 -30 7 -37 15 -7 8 -23 15 -35 15 -12 0 -28
7 -35 15 -7 8 -23 15 -35 15 -12 0 -28 7 -35 15 -7 8 -20 15 -30 15 -10 0 -23
7 -30 15 -7 8 -23 15 -35 15 -12 0 -28 7 -35 15 -7 8 -20 15 -30 15 -10 0 -23
7 -30 15 -7 8 -20 15 -30 15 -10 0 -20 7 -24 15 -3 8 -14 15 -24 15 -11 0 -25
7 -32 15 -7 8 -21 15 -32 15 -10 0 -21 7 -24 15 -4 8 -14 15 -24 15 -11 0 -22
5 -25 11 -4 5 -17 15 -28 20 -12 5 -35 18 -52 29 -16 11 -37 23 -45 27 -8 4
-43 26 -78 50 -35 24 -66 43 -69 43 -3 0 -22 13 -43 30 -21 17 -43 30 -49 30
-6 0 -11 5 -11 10 0 6 -11 15 -25 20 -14 5 -25 14 -25 20 0 5 -7 10 -15 10 -9
0 -18 7 -21 15 -4 8 -10 15 -15 15 -5 0 -17 8 -28 18 -10 9 -34 28 -52 42 -18
14 -40 32 -49 40 -8 8 -28 25 -44 37 -90 71 -436 404 -501 484 -11 13 -38 47
-60 74 -22 28 -46 54 -52 58 -7 4 -13 12 -13 18 0 11 -15 31 -42 57 -10 9 -18
20 -18 24 0 9 -45 62 -72 87 -10 8 -18 19 -18 24 0 5 -20 35 -45 67 -25 32
-45 63 -45 69 0 6 -5 11 -10 11 -6 0 -15 10 -20 23 -6 12 -19 36 -30 52 -11
17 -23 37 -27 45 -3 8 -19 31 -35 51 -15 20 -28 44 -28 52 0 8 -7 20 -15 27
-8 7 -15 21 -15 30 0 10 -4 20 -8 22 -11 4 -52 85 -52 102 0 8 -3 16 -7 18
-14 6 -53 67 -53 83 0 8 -4 15 -10 15 -5 0 -13 12 -16 27 -4 15 -13 34 -21 41
-7 7 -13 22 -13 31 0 10 -7 24 -15 31 -8 7 -15 23 -15 35 0 12 -7 28 -15 35
-8 7 -15 23 -15 37 0 13 -7 26 -15 29 -8 4 -15 18 -15 34 0 15 -7 33 -15 40
-8 7 -15 25 -15 40 0 15 -7 33 -15 40 -8 7 -15 24 -15 39 0 14 -7 35 -15 45
-8 11 -15 37 -15 57 0 21 -4 40 -9 44 -5 3 -13 20 -16 37 -4 18 -14 38 -21 46
-8 7 -14 28 -14 46 0 19 -7 39 -15 46 -8 7 -15 29 -15 50 0 21 -7 43 -15 50
-8 7 -15 29 -15 50 0 21 -7 51 -15 66 -8 16 -15 49 -15 75 0 25 -6 51 -12 57
-7 7 -16 53 -20 105 -8 114 -31 263 -47 300 -6 16 -11 68 -11 117 0 49 -5 92
-10 95 -6 3 -12 0 -14 -7z"/>
<path d="M11286 6465 c-3 -9 -6 -60 -6 -113 -1 -65 -5 -105 -15 -122 -9 -15
-14 -54 -15 -101 0 -50 -5 -82 -15 -95 -9 -12 -15 -44 -15 -89 0 -45 -6 -77
-15 -89 -8 -11 -15 -41 -15 -66 0 -25 -7 -55 -15 -66 -8 -10 -15 -37 -15 -60
0 -22 -7 -49 -15 -60 -8 -10 -15 -35 -15 -55 0 -20 -7 -42 -15 -49 -8 -7 -15
-27 -15 -45 0 -18 -7 -38 -15 -45 -8 -7 -15 -27 -15 -44 0 -18 -7 -41 -15 -52
-8 -10 -15 -31 -15 -45 0 -15 -7 -32 -15 -39 -8 -7 -15 -27 -15 -45 0 -18 -7
-38 -15 -45 -8 -7 -15 -23 -15 -35 0 -12 -7 -28 -15 -35 -8 -7 -15 -23 -15
-35 0 -12 -7 -28 -15 -35 -8 -7 -15 -23 -15 -35 0 -12 -7 -28 -15 -35 -8 -7
-15 -23 -15 -35 0 -12 -7 -28 -15 -35 -8 -7 -15 -20 -15 -30 0 -10 -7 -23 -15
-30 -8 -7 -15 -23 -15 -35 0 -12 -7 -28 -15 -35 -8 -7 -15 -21 -15 -31 0 -10
-5 -21 -11 -24 -5 -4 -14 -17 -20 -28 -5 -12 -14 -31 -21 -42 -22 -39 -28 -50
-37 -72 -6 -11 -15 -24 -20 -28 -6 -3 -11 -15 -11 -26 0 -11 -7 -22 -15 -25
-8 -4 -15 -12 -15 -19 0 -6 -13 -30 -28 -51 -16 -21 -31 -46 -35 -54 -4 -8
-16 -28 -27 -45 -11 -16 -24 -40 -30 -52 -5 -13 -14 -23 -20 -23 -5 0 -10 -5
-10 -11 0 -6 -13 -28 -30 -49 -16 -21 -30 -42 -30 -48 0 -5 -7 -12 -15 -16 -8
-3 -15 -11 -15 -18 0 -8 -13 -28 -30 -46 -16 -18 -30 -37 -30 -42 0 -4 -7 -10
-15 -14 -8 -3 -15 -11 -15 -18 0 -7 -19 -33 -43 -58 -23 -25 -58 -66 -77 -90
-19 -25 -46 -58 -60 -74 -36 -42 -381 -387 -410 -411 -14 -11 -47 -38 -75 -60
-27 -22 -56 -47 -65 -55 -9 -8 -31 -26 -49 -40 -18 -14 -42 -33 -52 -42 -11
-10 -23 -18 -28 -18 -5 0 -11 -7 -15 -15 -3 -8 -12 -15 -20 -15 -7 0 -16 -7
-20 -15 -3 -8 -10 -15 -16 -15 -7 0 -38 -20 -70 -45 -32 -25 -63 -45 -69 -45
-6 0 -11 -5 -11 -10 0 -6 -10 -15 -22 -20 -13 -6 -36 -19 -53 -30 -16 -11 -39
-24 -50 -30 -11 -6 -33 -19 -50 -30 -16 -11 -39 -24 -50 -30 -42 -23 -67 -38
-78 -49 -6 -6 -19 -11 -28 -11 -9 0 -22 -7 -29 -15 -7 -8 -20 -15 -30 -15 -10
0 -20 -7 -24 -15 -3 -8 -14 -15 -24 -15 -11 0 -25 -7 -32 -15 -7 -8 -20 -15
-30 -15 -10 0 -23 -7 -30 -15 -7 -8 -20 -15 -30 -15 -10 0 -23 -7 -30 -15 -7
-8 -23 -15 -35 -15 -12 0 -28 -7 -35 -15 -7 -8 -23 -15 -35 -15 -12 0 -28 -7
-35 -15 -7 -8 -23 -15 -35 -15 -12 0 -28 -7 -35 -15 -7 -8 -23 -15 -35 -15
-12 0 -28 -7 -35 -15 -7 -8 -24 -15 -39 -15 -14 0 -35 -7 -45 -15 -11 -8 -31
-15 -44 -15 -13 0 -30 -7 -38 -15 -9 -8 -30 -15 -48 -15 -19 0 -39 -7 -46 -15
-7 -8 -29 -15 -50 -15 -21 0 -43 -7 -50 -15 -7 -8 -29 -15 -49 -15 -20 0 -45
-7 -55 -15 -11 -8 -36 -15 -55 -15 -20 0 -45 -7 -55 -15 -12 -9 -42 -15 -72
-15 -34 0 -56 -5 -64 -15 -9 -11 -32 -15 -79 -15 -42 -1 -73 -6 -85 -15 -14
-10 -45 -15 -100 -15 -51 -1 -90 -6 -106 -15 -17 -10 -57 -14 -122 -15 -91 0
-136 -13 -86 -25 99 -22 132 -25 222 -20 118 7 340 43 406 66 14 4 65 16 114
25 49 8 121 26 160 39 39 13 112 36 161 50 50 15 110 36 135 45 25 10 81 32
125 49 103 38 276 115 395 176 189 96 267 141 337 193 24 17 47 32 52 32 9 0
65 37 172 112 110 78 232 169 244 182 6 6 51 45 100 86 122 101 373 348 502
494 131 147 403 514 403 542 0 4 11 21 23 38 32 42 146 231 169 281 10 22 23
47 27 55 5 8 22 42 37 75 15 33 49 104 75 158 27 54 49 106 49 115 0 10 4 22
9 27 11 11 100 238 120 305 8 25 24 78 38 118 13 40 28 91 32 115 5 23 16 67
24 97 8 30 18 79 21 109 4 29 13 63 21 75 7 11 16 46 20 76 4 30 15 98 25 150
26 135 33 290 16 368 -15 70 -21 80 -30 57z"/>
</g>
</svg>
